<svg xmlns="http://www.w3.org/2000/svg" viewBox="0 0 520 380" fill="none">
  <defs>
    <linearGradient id="ncsLine" x1="92" y1="68" x2="424" y2="306" gradientUnits="userSpaceOnUse">
      <stop offset="0" stop-color="#fff" stop-opacity=".42"/>
      <stop offset=".45" stop-color="#f7efff" stop-opacity=".82"/>
      <stop offset=".72" stop-color="#b774ff" stop-opacity=".72"/>
      <stop offset="1" stop-color="#fff" stop-opacity=".34"/>
    </linearGradient>
    <linearGradient id="ncsViolet" x1="86" y1="302" x2="460" y2="116" gradientUnits="userSpaceOnUse">
      <stop offset="0" stop-color="#fff" stop-opacity=".38"/>
      <stop offset=".38" stop-color="#d8adff" stop-opacity=".7"/>
      <stop offset=".68" stop-color="#8d45ff" stop-opacity=".92"/>
      <stop offset="1" stop-color="#fff" stop-opacity=".48"/>
    </linearGradient>
    <filter id="softGlow" x="-40%" y="-40%" width="180%" height="180%" color-interpolation-filters="sRGB">
      <feGaussianBlur stdDeviation="2.2" result="blur"/>
      <feMerge>
        <feMergeNode in="blur"/>
        <feMergeNode in="SourceGraphic"/>
      </feMerge>
    </filter>
  </defs>

  <g filter="url(#softGlow)" stroke-linecap="round" stroke-linejoin="round">
    <path
      d="M91 258C155 345 338 285 447 125"
      stroke="url(#ncsViolet)"
      stroke-width="4.6"
      opacity=".94"/>
    <path
      d="M74 283C171 336 325 278 429 153"
      stroke="#f6ecff"
      stroke-width="1.55"
      opacity=".58"/>
    <path
      d="M112 247C142 270 205 253 277 218"
      stroke="#fff"
      stroke-width="1.4"
      opacity=".52"/>

    <path
      d="M247 172C266 124 287 76 323 21C300 93 282 136 258 180C304 181 359 188 450 202C351 215 300 214 252 193C229 236 202 286 159 357C182 280 204 230 236 190C184 187 125 185 25 191C128 170 187 164 247 172Z"
      stroke="url(#ncsLine)"
      stroke-width="4.6"
      opacity=".92"/>
    <path
      d="M247 172L323 21M247 172L159 357M247 172L450 202M247 172L25 191"
      stroke="#fff"
      stroke-width="1.55"
      opacity=".5"/>
    <path
      d="M236 190C252 181 253 181 258 180M236 190C238 206 246 203 252 193"
      stroke="#d9adff"
      stroke-width="2.8"
      opacity=".74"/>

    <g stroke="url(#ncsLine)" stroke-width="2.4" opacity=".86">
      <path d="M370 105l13-13 13 13-13 13z"/>
      <path d="M383 92v26M370 105h26"/>
      <path d="M405 132l15-15 15 15-15 15z"/>
      <path d="M420 117v30M405 132h30"/>
      <path d="M452 156l11-11 11 11-11 11z"/>
      <path d="M463 145v22M452 156h22"/>
      <path d="M436 190l8-8 8 8-8 8z"/>
      <path d="M444 182v16M436 190h16"/>
    </g>
  </g>
</svg>
